<svg width="32" height="32" viewBox="0 0 32 32" xmlns="http://www.w3.org/2000/svg">
  <rect x="1" y="1" width="30" height="30" rx="9" fill="#5B3FD1"/>
    <rect x="6.60" y="3.50" width="2.6" height="2.6" fill="#FFFAF5"/>
  <rect x="9.20" y="3.50" width="2.6" height="2.6" fill="#FFFAF5"/>
  <rect x="11.80" y="3.50" width="2.6" height="2.6" fill="#FFFAF5"/>
  <rect x="14.40" y="3.50" width="2.6" height="2.6" fill="#FFFAF5"/>
  <rect x="17.00" y="3.50" width="2.6" height="2.6" fill="#FFFAF5"/>
  <rect x="19.60" y="3.50" width="2.6" height="2.6" fill="#FFFAF5"/>
  <rect x="22.20" y="3.50" width="2.6" height="2.6" fill="#FFFAF5"/>
  <rect x="4.00" y="6.10" width="2.6" height="2.6" fill="#FFFAF5"/>
  <rect x="6.60" y="6.10" width="2.6" height="2.6" fill="#FFFAF5"/>
  <rect x="9.20" y="6.10" width="2.6" height="2.6" fill="#FFFAF5"/>
  <rect x="11.80" y="6.10" width="2.6" height="2.6" fill="#FFFAF5"/>
  <rect x="14.40" y="6.10" width="2.6" height="2.6" fill="#FFFAF5"/>
  <rect x="17.00" y="6.10" width="2.6" height="2.6" fill="#FFFAF5"/>
  <rect x="19.60" y="6.10" width="2.6" height="2.6" fill="#FFFAF5"/>
  <rect x="22.20" y="6.10" width="2.6" height="2.6" fill="#FFFAF5"/>
  <rect x="24.80" y="6.10" width="2.6" height="2.6" fill="#FFFAF5"/>
  <rect x="4.00" y="8.70" width="2.6" height="2.6" fill="#FFFAF5"/>
  <rect x="6.60" y="8.70" width="2.6" height="2.6" fill="#FFFAF5"/>
  <rect x="9.20" y="8.70" width="2.6" height="2.6" fill="#FFFAF5"/>
  <rect x="11.80" y="8.70" width="2.6" height="2.6" fill="#FFFAF5"/>
  <rect x="14.40" y="8.70" width="2.6" height="2.6" fill="#FFFAF5"/>
  <rect x="17.00" y="8.70" width="2.6" height="2.6" fill="#FFFAF5"/>
  <rect x="19.60" y="8.70" width="2.6" height="2.6" fill="#FFFAF5"/>
  <rect x="22.20" y="8.70" width="2.6" height="2.6" fill="#FFFAF5"/>
  <rect x="24.80" y="8.70" width="2.6" height="2.6" fill="#FFFAF5"/>
  <rect x="4.00" y="11.30" width="2.6" height="2.6" fill="#FFFAF5"/>
  <rect x="6.60" y="11.30" width="2.6" height="2.6" fill="#FFFAF5"/>
  <rect x="11.80" y="11.30" width="2.6" height="2.6" fill="#5B3FD1"/>
  <rect x="14.40" y="11.30" width="2.6" height="2.6" fill="#5B3FD1"/>
  <rect x="17.00" y="11.30" width="2.6" height="2.6" fill="#5B3FD1"/>
  <rect x="22.20" y="11.30" width="2.6" height="2.6" fill="#FFFAF5"/>
  <rect x="24.80" y="11.30" width="2.6" height="2.6" fill="#FFFAF5"/>
  <rect x="4.00" y="13.90" width="2.6" height="2.6" fill="#FFFAF5"/>
  <rect x="6.60" y="13.90" width="2.6" height="2.6" fill="#FFFAF5"/>
  <rect x="11.80" y="13.90" width="2.6" height="2.6" fill="#5B3FD1"/>
  <rect x="14.40" y="13.90" width="2.6" height="2.6" fill="#5B3FD1"/>
  <rect x="17.00" y="13.90" width="2.6" height="2.6" fill="#5B3FD1"/>
  <rect x="22.20" y="13.90" width="2.6" height="2.6" fill="#FFFAF5"/>
  <rect x="24.80" y="13.90" width="2.6" height="2.6" fill="#FFFAF5"/>
  <rect x="4.00" y="16.50" width="2.6" height="2.6" fill="#FFFAF5"/>
  <rect x="6.60" y="16.50" width="2.6" height="2.6" fill="#FFFAF5"/>
  <rect x="9.20" y="16.50" width="2.6" height="2.6" fill="#FFFAF5"/>
  <rect x="11.80" y="16.50" width="2.6" height="2.6" fill="#FFFAF5"/>
  <rect x="14.40" y="16.50" width="2.6" height="2.6" fill="#FFFAF5"/>
  <rect x="17.00" y="16.50" width="2.6" height="2.6" fill="#FFFAF5"/>
  <rect x="19.60" y="16.50" width="2.6" height="2.6" fill="#FFFAF5"/>
  <rect x="22.20" y="16.50" width="2.6" height="2.6" fill="#FFFAF5"/>
  <rect x="24.80" y="16.50" width="2.6" height="2.6" fill="#FFFAF5"/>
  <rect x="6.60" y="19.10" width="2.6" height="2.6" fill="#FFFAF5"/>
  <rect x="9.20" y="19.10" width="2.6" height="2.6" fill="#FFFAF5"/>
  <rect x="11.80" y="19.10" width="2.6" height="2.6" fill="#FFFAF5"/>
  <rect x="14.40" y="19.10" width="2.6" height="2.6" fill="#FFFAF5"/>
  <rect x="17.00" y="19.10" width="2.6" height="2.6" fill="#FFFAF5"/>
  <rect x="19.60" y="19.10" width="2.6" height="2.6" fill="#FFFAF5"/>
  <rect x="22.20" y="19.10" width="2.6" height="2.6" fill="#FFFAF5"/>
  <rect x="9.20" y="21.70" width="2.6" height="2.6" fill="#FFFAF5"/>
  <rect x="11.80" y="21.70" width="2.6" height="2.6" fill="#FFFAF5"/>
  <rect x="14.40" y="21.70" width="2.6" height="2.6" fill="#FFFAF5"/>
  <rect x="17.00" y="21.70" width="2.6" height="2.6" fill="#FFFAF5"/>
  <rect x="19.60" y="21.70" width="2.6" height="2.6" fill="#FFFAF5"/>
  <rect x="11.80" y="24.30" width="2.6" height="2.6" fill="#FFFAF5"/>
  <rect x="14.40" y="24.30" width="2.6" height="2.6" fill="#FFFAF5"/>
  <rect x="17.00" y="24.30" width="2.6" height="2.6" fill="#FFFAF5"/>
</svg>
